PLOT

A caving expedition goes horribly wrong, as the explorers become trapped and ultimately
pursued by a strange breed of predators.
 
http://www.imdb.com/title/tt0435625/

Encoded By .......: BigPerm1828
Runtime ..........: 1h 39mn
File Size ........: 1.06 GiB
Resolution .......: 704x396
IMDb URL .........: http://www.imdb.com/title/tt0435625/
Language .........: English
Video
ID : 0
Format : MPEG-4 Visual
Format profile : Advanced Simple@L5
Format settings, BVOP : Yes
Format settings, QPel : No
Format settings, GMC : No warppoints
Format settings, Matrix : Default (H.263)
Codec ID : XVID
Codec ID/Hint : XviD
Duration : 1h 39mn
Bit rate : 60.3 Kbps
Width : 704 pixels
Height : 396 pixels
Display aspect ratio : 16:9
Frame rate : 29.970 fps
Color space : YUV
Chroma subsampling : 4:2:0
Bit depth : 8 bits
Scan type : Progressive
Compression mode : Lossy
Bits/(Pixel*Frame) : 0.007
Stream size : 43.0 MiB (4%)
Writing library : XviD 1.2.1 (UTC 2008-12-04)

Audio
ID : 1
Format : AC-3
Format/Info : Audio Coding 3
Codec ID : 2000
Duration : 1h 39mn
Bit rate mode : Constant
Bit rate : 448 Kbps
Channel(s) : 6 channels
Sampling rate : 48.0 KHz
Bit depth : 16 bits
Compression mode : Lossy
Stream size : 320 MiB (29%)
Alignment : Aligned on interleaves
 
http://leetleech.org/images/38271444928154416466.png
 
http://leetleech.org/images/75633469436245652744.png
 
http://leetleech.org/images/37310810546086544577.png
 
http://leetleech.org/images/11850592778004550367.png